<?xml version="1.0" encoding="utf-8"?>
<!-- Generator: Adobe Illustrator 24.1.1, SVG Export Plug-In . SVG Version: 6.00 Build 0)  -->
<svg version="1.1" id="Ebene_1" xmlns="http://www.w3.org/2000/svg" xmlns:xlink="http://www.w3.org/1999/xlink" x="0px" y="0px"
	 viewBox="0 0 228.18 216.75" style="enable-background:new 0 0 228.18 216.75;" xml:space="preserve">
<style type="text/css">
	.st0{fill:#056478;}
	.st1{fill:#FFFFFF;}
</style>
<circle class="st0" cx="112.26" cy="114.25" r="91.26"/>
<path class="st1" d="M126.17,153c-0.9-0.08-1.83,0.01-2.69-0.21c-0.5-0.13-1.02-0.66-1.3-1.14c-0.77-1.35-1.17-2.99-2.17-4.09
	c-0.92-1-2.45-1.44-3.69-2.16c-0.47-0.27-0.88-0.64-1.34-0.93c-0.31-0.19-0.81-0.56-0.96-0.45c-1.19,0.82-4.05-0.63-3.55,2.54
	c0.02,0.15-0.27,0.34-0.42,0.52c-0.12-0.26-0.24-0.51-0.34-0.77c-0.08-0.2-0.12-0.42-0.18-0.63c-0.17,0.2-0.44,0.38-0.5,0.61
	c-0.47,2.01,3.35,5.8,5.3,5.17c0.71-0.23,1.25-1,1.86-1.53c0.25-0.22,0.5-0.44,0.75-0.66c0.25,0.33,0.57,0.62,0.72,0.99
	c0.19,0.47,0.21,1.02,0.39,1.5c0.05,0.14,0.4,0.18,0.61,0.26c-0.24,0.42-0.42,0.9-0.73,1.26c-0.85,0.99-1.73,1.96-2.68,2.86
	c-0.29,0.27-1.1,0.5-1.21,0.37c-1.64-2.01-3.33-4.01-4.76-6.18c-1.49-2.27-3.28-1.31-4.99-0.69c-0.58,0.21-0.91,1.09-1.37,1.66
	c-0.08,0.1-0.25,0.16-0.39,0.19c-1.44,0.32-3.12,0.26-4.25,1.02c-1.4,0.93-7,2.09-8.56,1.63c-1.53-0.45-3.39-0.69-4.85-0.22
	c-1.35,0.43-1.52,0.63-1.52-0.88c0-0.43-1.09-1.25-1.66-1.23c-5.39,0.17-10.77,0.49-16.16,0.7c-0.39,0.01-1.16-0.58-1.16-0.88
	c0.02-1.39-0.87-1.75-2.45-1.43c-1.13,0.23-2.41-0.22-3.62-0.38c-0.67-0.09-1.38-0.39-2-0.27c-3.43,0.69-6.84,1.48-10.26,2.23
	c-0.41,0.09-0.81,0.17-1.22,0.25c0.2-0.5,0.31-1.07,0.64-1.46c0.15-0.17,0.76,0.13,1.14,0.07c0.75-0.12,1.48-0.34,2.22-0.52
	c-0.05-0.11-0.11-0.32-0.16-0.32c-1.66,0.07-3.91-0.48-4.87,0.39c-1.82,1.66-3.41,1.75-5.22,0.97c0.62,1.68,1.96,3.06,3.56,4.06
	c0.09,0.06,0.17,0.12,0.24,0.19c1.7,0.93,3.4,1.87,5.1,2.81c0.68-0.12,1.18,0.28,1.39,0.78c0.22,0.18,0.35,0.5,0.53,0.75
	c-0.18,0.09-0.36,0.21-0.53,0.31c-0.13,0.26-0.38,0.46-0.77,0.54c-1.5,0.3-5.48,0.38-6.45,2.15c0.08,0.62,0.17,1.24,0.27,1.84
	c0.27,0.26,0.64,0.48,1.06,0.67c0.81,0.26,1.75,0.28,2.5,0.31c0.59,0.02,1.18,0.02,1.77,0.04c0.3-0.06,0.6-0.11,0.9-0.19
	c0.41-0.11,0.82-0.25,1.2-0.43c1.03-0.5,2.02-1.09,3.08-1.52c0.26-0.1,0.72,0.3,1.09,0.47c-0.34-0.31-0.7-0.61-1.01-0.95
	c-0.23-0.24-0.4-0.53-0.59-0.8c0.15-0.08,0.33-0.28,0.43-0.24c1.6,0.62,3.2,1.23,4.76,1.94c0.25,0.11,0.32,0.64,0.47,0.97
	c-0.37,0.1-0.74,0.29-1.1,0.27c-1.2-0.07-2.39-0.36-3.58-0.31c-0.85,0.04-1.69,0.48-2.54,0.74c0.83-0.12,1.66-0.25,2.49-0.37
	c0.25-0.04,0.5-0.09,0.75-0.07c1.55,0.14,3.12,0.21,4.65,0.49c0.8,0.15,1.51,0.76,2.31,1c0.7,0.21,1.47,0.2,2.2,0.24
	c0.17,0.01,0.36-0.13,0.54-0.21c-0.37-0.22-0.78-0.41-1.11-0.69c-0.15-0.13-0.27-0.5-0.2-0.66c0.11-0.23,0.4-0.5,0.64-0.53
	c1.91-0.28,3.82-0.52,5.74-0.73c0.32-0.03,0.65,0.12,0.98,0.19c-0.25,0.18-0.51,0.37-0.76,0.55c-0.58,0.42-1.16,0.85-1.74,1.27
	c0.59,0.07,1.18,0.13,1.77,0.23c0.31,0.05,0.62,0.19,0.92,0.29c-0.22,0.17-0.42,0.44-0.67,0.49c-0.61,0.14-1.24,0.18-1.87,0.25
	c0.67,0.09,1.33,0.26,2,0.26c0.75,0,1.49-0.19,2.24-0.23c1.83-0.08,3.65-0.13,5.48-0.15c0.43-0.01,0.86,0.13,1.28,0.2
	c-0.04-0.16-0.03-0.42-0.13-0.47c-0.43-0.22-0.88-0.41-1.34-0.55c-0.36-0.11-0.75-0.14-1.12-0.21c0.35-0.24,0.68-0.64,1.06-0.68
	c2.25-0.26,4.51-0.44,6.77-0.63c0.14-0.01,0.29,0.01,0.44,0.02c-0.1,0.15-0.17,0.39-0.3,0.44c-1.18,0.4-2.37,0.77-3.56,1.14
	c-0.22,0.07-0.46,0.12-0.69,0.17c0.15,0.17,0.27,0.45,0.46,0.5c1.98,0.59,3.97,1.14,5.96,1.7c0.98,0.28,2.54-1.17,2.97,1.14
	c0.07,0.36,2.29,0.34,3.53,0.41c0.08,0,0.38-0.93,0.28-1.01c-0.55-0.4-1.19-0.66-1.81-0.96c-0.29-0.14-0.6-0.23-0.9-0.34
	c0.27-0.18,0.56-0.34,0.82-0.54c0.96-0.73,1.88-1.51,2.88-2.18c0.28-0.19,0.84-0.22,1.14-0.07c0.79,0.4,1.47,1.26,2.27,1.35
	c0.97,0.11,2.01-0.38,3.02-0.61c-0.78-0.29-1.57-0.55-2.32-0.9c-0.33-0.15-0.58-0.47-0.87-0.72c0.28-0.18,0.61-0.57,0.83-0.51
	c1.16,0.3,2.29,0.7,3.42,1.1c0.34,0.12,0.75,0.57,0.96,0.48c0.53-0.23,0.96-0.68,1.44-1.04c-0.08-0.09-0.14-0.23-0.24-0.27
	c-0.51-0.2-1.03-0.38-1.55-0.57c0.62-0.18,1.28-0.58,1.86-0.49c1.41,0.21,2.79,0.65,4.18,0.99c0.46,0.11,0.92,0.21,1.37,0.31
	c-0.02-0.18,0.01-0.41-0.09-0.52c-0.21-0.23-0.49-0.4-0.74-0.59c0.17-0.08,0.37-0.25,0.52-0.22c0.47,0.11,0.92,0.29,1.37,0.45
	c1.55,0.56,3.08,1.2,4.65,1.67c0.61,0.18,1.34,0,2.01-0.01c-0.63,0.24-1.26,0.51-1.91,0.72c-0.28,0.09-0.75-0.06-0.87,0.09
	c-0.34,0.44-0.56,0.98-0.74,1.51c-0.02,0.05,0.57,0.45,0.87,0.43c1.6-0.06,3.21-0.17,4.81-0.32c0.21-0.02,0.47-0.31,0.57-0.53
	c0.33-0.69,0.61-1.4,0.87-2.12c0.11-0.3,0.3-0.76,0.18-0.94c-0.48-0.67-1.09-1.25-1.62-1.89c-0.05-0.06,0.14-0.41,0.3-0.52
	c1.33-0.97,2.73-1.86,4-2.9c0.3-0.25,0.39-1.02,0.27-1.47c-0.7-2.56-1.19-4.8,2.87-3.6c0.64,0.19,1.46-0.21,2.2-0.34
	C127.62,153.2,126.9,153.07,126.17,153z M87.68,165.58c0,0.06,0,0.12,0,0.19c-0.99-0.16-1.97-0.31-2.96-0.47
	c1.42-0.39,2.83-0.86,4.28-1.1c0.23-0.04,0.63,0.9,0.95,1.39H87.68z M116.87,164.19c-1.54-0.04-3.08,0.02-4.61-0.12
	c-0.54-0.05-1.04-0.58-1.57-0.89c0.48-0.25,0.96-0.49,1.52-0.77c1.67,0.54,3.24,1.03,4.8,1.56c0.15,0.05,0.25,0.27,0.37,0.41
	C117.21,164.3,117.04,164.19,116.87,164.19z"/>
<path class="st1" d="M163.95,99c-0.5,0.12-3.77,0.05-4.23-0.06c-2.89-0.74-5.86,0.41-8.74-0.37c-0.15-0.04-0.35,0.09-0.53,0.14
	c0.09,0.29,0.11,0.64,0.3,0.85c0.19,0.21,0.55,0.29,0.83,0.42c-0.33,0.06-0.68,0.24-0.98,0.16c-2.97-0.72-2.2,0.89-1.86,2.65
	c0.58,3.03,0.77,6.14,1.28,9.19c0.87,5.24,1.26,10.67,3.04,15.59c0.93,2.56,4.51,4.09,6.67,6.31c1.52,1.55,2.64,3.48,3.99,5.2
	c0.39,0.5,0.89,1.01,1.46,1.24c0.24,0.1,0.74-0.58,1.18-0.78c0.57-0.26,1.19-0.4,1.79-0.58c0.01,0.63,0.23,1.37-0.02,1.86
	c-0.7,1.37-1.35,2.95-2.48,3.87c-1.41,1.14-3.28,1.72-4.96,2.52c-0.09,0.04-0.3-0.15-0.45-0.24c0.27-0.28,0.51-0.6,0.81-0.83
	c0.68-0.5,2.06-1.13,1.99-1.4c-0.58-2.18-0.85-4.95-2.34-6.26c-2.46-2.18-5.65-3.64-8.72-4.97c-4.23-1.84-5.1-5.7-5.75-9.41
	c-0.52-2.98-2.14-3.45-4.55-3.94c-5.69-1.17-10.2,1.01-13.84,4.96c-3.13,3.4-5.81,7.24-8.53,11.01c-0.96,1.33-1.37,3.04-2.18,4.49
	c-0.32,0.58-1.05,1.34-1.58,1.33c-2.34-0.05-4.67-0.34-7.01-0.59c-0.4-0.04-0.78-0.31-1.17-0.47c0.42-0.09,0.84-0.27,1.25-0.26
	c1.93,0.04,3.87,0.17,5.8,0.2c0.41,0.01,0.82-0.25,1.24-0.38c-0.24-0.28-0.45-0.58-0.71-0.84c-0.95-0.93-1.64-1.43-0.44-3.13
	c3.23-4.57,5.68-9.69,8.93-14.24c2.18-3.05,5.19-5.51,7.81-8.24c1.38-1.44,2.98-2.77,4.01-4.44c0.6-0.98,0.26-2.53,0.35-3.82
	c0.15-2.28,0.3-4.56,0.45-6.83c0.16-2.45,0.45-4.9,0.38-7.34c-0.02-0.73-0.94-1.81-1.69-2.08c-3.87-1.43-7.83-2.62-11.72-3.98
	c-0.61-0.21-1.25-0.75-1.58-1.31c-1.97-3.35-5.91-4.19-9.42-2.14c-1.45,0.85-3.19,1.22-4.81,1.77c-0.14,0.05-0.37-0.2-0.56-0.31
	c0.19-0.05,0.41-0.06,0.57-0.16c1.42-0.86,2.77-1.85,4.25-2.58c1.38-0.68,2.89-1.08,4.33-1.62c0.29-0.11,0.54-0.35,0.83-0.4
	c0.3-0.06,0.68-0.04,0.93,0.1c0.23,0.13,0.33,0.48,0.48,0.74c-0.26,0.11-0.51,0.32-0.77,0.32c-0.65,0-1.29-0.08-1.94-0.14
	c0.01,0.07,0.02,0.19,0.04,0.19c0.94,0.1,2.1,0.58,2.78,0.2c2.3-1.28,3.83-0.21,5.63,1.06c1.57,1.11,3.41,2.2,5.26,2.49
	c2.5,0.39,5.13,0.07,7.7-0.08c0.74-0.04,1.45-0.55,2.17-0.84c-0.26-0.43-0.69-0.84-0.75-1.3c-0.1-0.8,0.11-1.64,0-2.44
	c-0.04-0.28-0.62-0.49-0.96-0.73c-0.06,0.15-0.19,0.3-0.18,0.45c0.04,0.49,0.13,0.97,0.2,1.46c-1.1-0.52-2.26-0.94-3.27-1.61
	c-0.61-0.4-1-1.16-1.41-1.81c-0.15-0.24-0.2-0.86-0.13-0.89c2-0.76,4.3-2.47,5.97-1.99c4.5,1.3,6.23,4.87,4.73,7.97
	c-0.15,0.3-0.41,0.55-0.61,0.82c0.05-0.3,0.1-0.6,0.15-0.9c0.07-0.39,0.25-0.79,0.22-1.17c-0.07-1.09-0.22-2.18-0.33-3.27
	c0.01,1.01,0.36,2.19-0.05,2.98c-0.81,1.57-2.04,2.91-3.1,4.35c-0.14,0.19-0.27,0.4-0.4,0.6c0.23-0.05,0.5-0.04,0.69-0.16
	c3.01-1.78,5.04,0.21,7.13,1.88c0.27,0.21,0.23,0.8,0.34,1.22c-0.37,0.06-0.77,0.23-1.11,0.15c-1.32-0.31-2.63-0.69-3.94-1.04
	c-0.17-0.05-0.36-0.03-0.54-0.05c0.14,0.13,0.27,0.3,0.44,0.38c4.12,1.98,8.27,3.88,12.34,5.95c1.83,0.93,3.65,0.12,5.4,0.42
	c1,0.17,1.61,2,3.15,0.9c0.72-0.51,2.41,3.07,3.15,3.11 M158.85,98.82"/>
<path class="st1" d="M166.6,174.51c2.74-0.23,5.45-0.76,8.16-1.28c0.53-0.35,1.02-0.75,1.37-1.28c0.7-1.05,1.08-2.53,1.37-3.74
	c0.24-1,0.22-1.98-0.01-2.98c-0.27-1.19-0.78-2.54-1.66-3.47c-0.17-0.01-0.34-0.02-0.5-0.05c-1.36-0.2-2.68-0.59-4.03-0.87
	c-0.65-0.13-1.31-0.2-1.96-0.3c0.33,0.71,0.65,1.43,0.98,2.14c-2.15-0.84-2.15-0.85-2.01-2.13c0.01-0.08-0.33-0.3-0.47-0.28
	c-1.25,0.25-2.49,0.55-3.73,0.83c0.92,0.53,1.85,1.07,2.77,1.6c0.22,0.13,0.47,0.21,0.66,0.37c0.55,0.46,1.08,0.95,1.62,1.43
	c-0.79-0.13-1.59-0.25-2.38-0.4c-0.14-0.03-0.24-0.19-0.38-0.24c-2.47-0.89-4.93-1.79-7.41-2.64c-0.19-0.07-0.49,0.18-0.74,0.29
	c0.16,0.17,0.29,0.45,0.47,0.49c1.14,0.22,2.29,0.36,3.44,0.57c0.26,0.05,0.48,0.25,0.73,0.38c-0.25,0.05-0.6,0.24-0.73,0.14
	c-1.56-1.19-3.98,1.61-5.38-1.28c-0.3-0.61-2.62-0.22-4-0.32c-0.51-0.04-1.01-0.15-1.52-0.23c0.55-0.05,1.1-0.08,1.64-0.15
	c0.38-0.05,0.75-0.14,1.12-0.22c-0.18-0.12-0.36-0.34-0.54-0.35c-2.89-0.14-5.7-0.02-7.9,2.3c-0.6,0.64-1.58,0.95-2.1,1.63
	c-0.51,0.67-1.08,2.24-0.9,2.35c1.44,0.97,3.04,1.7,4.6,2.51c0.13,0.07,0.26,0.15,0.38,0.23c-0.07,0.08-0.13,0.18-0.22,0.23
	c-0.3,0.16-0.61,0.3-0.92,0.45c0.42,0.11,0.84,0.28,1.27,0.32c3.57,0.34,7.15,0.64,10.72,0.99c0.57,0.06,1.12,0.32,1.68,0.48
	c-0.06,0.12-0.12,0.36-0.17,0.35c-0.67-0.04-1.35-0.09-2.02-0.2c-0.23-0.04-0.42-0.27-0.65-0.37c-0.12-0.05-0.28,0.01-0.42,0.01
	c0.06,0.11,0.11,0.22,0.19,0.32c0.34,0.39,0.69,0.78,1.03,1.17c-0.64-0.02-1.27-0.07-1.91-0.05c-0.36,0.01-0.71,0.12-1.06,0.18
	c0.37,0.12,0.73,0.34,1.1,0.35c1.11,0.03,2.22-0.13,3.32-0.03C161.86,173.98,164.27,174.71,166.6,174.51z M175.82,162.86
	c0.22,0.01,0.44,0.07,0.65,0.11c-0.21,0.18-0.4,0.47-0.63,0.51c-1.71,0.28-3.43,0.51-5.14,0.75c0.03-0.23,0.13-0.49,0.07-0.7
	c-0.07-0.29-0.25-0.55-0.39-0.82C172.2,162.76,174.01,162.81,175.82,162.86z"/>
<path class="st1" d="M48.87,160.05c0.18-0.1,0.36-0.23,0.53-0.31c-0.18-0.24-0.31-0.57-0.53-0.75
	C49.02,159.33,49.03,159.73,48.87,160.05z"/>
<path class="st1" d="M40.44,158.31c0.1,0.16,0.18,0.33,0.26,0.51c1.26-0.81,2.6-1.18,4.11-1.15c0.12,0,0.24,0.02,0.34,0.05
	c0.27-0.03,0.55-0.05,0.81-0.05c0.53-0.01,0.88,0.26,1.06,0.62c0.15-0.03,0.29-0.05,0.43-0.08c0.01,0,0.03,0,0.04-0.01
	c-1.7-0.94-3.4-1.87-5.1-2.81c0.93,0.93-0.23,2.73-1.49,1.94c-1.15-0.72-2.19-1.6-3.02-2.61v0.7c0.78,0.47,1.35,1.12,1.77,1.88
	C39.95,157.59,40.21,157.92,40.44,158.31z"/>
<path class="st1" d="M168.09,154.33c0.6,0.2,1.21,0.39,1.82,0.58c-0.01-0.03-0.02-0.05-0.03-0.07c0.7-0.24,1.41-0.45,2.09-0.74
	c0.23-0.1,0.43-0.38,0.54-0.63c0.27-0.61,0.52-1.24,0.69-1.89c0.09-0.35,0.08-1.04-0.01-1.07c-0.48-0.12-1.01-0.15-1.5-0.06
	c-1,0.18-1.98,0.49-2.98,0.66c-0.44,0.08-0.92-0.06-1.39-0.1c0.13,0.74,0.19,1.51,0.39,2.23
	C167.81,153.61,167.95,153.97,168.09,154.33z"/>
<path class="st1" d="M88.77,173.11c0.05,0,0.1,0,0.15,0c0.23,0,0.46,0.12,0.69,0.23c0.93,0.26,1.86,0.55,2.79,0.83
	c-0.01-0.17-0.04-0.32-0.13-0.43c-0.21-0.27-0.81-0.23-1.23-0.33c0.43-0.09,0.87-0.17,1.3-0.27c0.14-0.03,0.26-0.14,0.38-0.22
	c-0.19-0.11-0.37-0.3-0.57-0.31c-1.61-0.15-3.22-0.4-4.82-0.35c-1.13,0.03-2.26,0.15-3.39,0.28
	C85.53,172.52,87.11,172.68,88.77,173.11z"/>
<path class="st1" d="M40.06,144.24c-0.55,0.69-1,1.44-1.32,2.25c1.42-0.64,2.85-1.28,4.26-1.95c0.15-0.07,0.19-0.4,0.28-0.61
	c-0.17,0.01-0.34,0.02-0.51,0.03C41.86,144.06,40.96,144.15,40.06,144.24z"/>
<path class="st1" d="M90.45,100.28c0.19,5.36-0.74,12.22-0.82,17.58c-0.02,1.62,0.79,3.25,1.11,4.9c0.11,0.56-0.02,1.2-0.16,1.77
	c-0.87,3.33-1.75,6.65-2.71,9.96c-0.13,0.44-0.72,0.75-1.1,1.12c-0.07-0.43-0.05-0.91-0.23-1.28c-0.4-0.82-1.17-1.55-1.33-2.4
	c-0.36-1.98-0.33-4.02-0.69-6c-0.13-0.73-0.9-1.34-1.37-2.01c-0.15-0.22-0.39-0.45-0.41-0.68c-0.15-2.43-0.15-4.87-0.41-7.29
	c-0.5-4.71-1.11-9.41-1.76-14.1c-0.09-0.68-0.7-1.29-1.07-1.93c-0.42,0.49-0.98,0.91-1.25,1.47c-2.52,5.11-5.17,10.16-7.42,15.39
	c-1.4,3.24-2.17,6.76-3.25,10.14c-0.06,0.2-0.28,0.53-0.4,0.51c-4.71-0.53-3.95,3.81-5.44,6.12c-0.77,1.19-1.42,2.45-2.18,3.65
	c-0.16,0.26-0.53,0.4-0.81,0.59c-0.03-0.44-0.17-0.9-0.08-1.31c0.68-3.14,1.72-6.24,1.98-9.41c0.15-1.82-0.4-3.53,0.34-5.54
	c2.26-6.16,4.04-12.49,5.97-18.77c0.15-0.5,0.01-1.11-0.07-1.65c-0.02-0.15-0.31-0.26-0.48-0.39c-0.52,3.46-0.62,0.67-1.06-0.02
	c-0.16-0.25-0.9-0.13-1.37-0.18c0.03,0.31,0.08,0.62,0.09,0.93c0.02,0.56,0.18,1.19-0.02,1.66c-0.11,0.25-0.85,0.24-1.3,0.35
	c-0.1-0.49-0.41-1.05-0.26-1.46c0.33-0.93,0.9-1.78,1.35-2.68c0.46-0.93,0.8-1.92,1.34-2.79c0.69-1.1,1.54-2.1,2.32-3.14
	c0.32,0.47,0.64,0.94,0.96,1.41c0.52-0.53,1.23-0.97,1.53-1.61c0.85-1.8,1.55-3.68,2.29-5.54c0.88-2.23,1.75-4.48,2.59-6.73
	c0.13-0.35,0.07-0.76,0.1-1.15c-0.29,0.3-0.67,0.55-0.86,0.9c-2.23,4.24-4.43,8.5-6.64,12.75c0.94-3.44,1.43-7.09,2.94-10.25
	c1.33-2.77,4.1-4.82,5.65-7.53c0.93-1.63,0.59-3.94,1.09-5.88c0.19-0.74,0.99-1.58,1.72-1.89c1.59-0.67,3.35-0.93,4.96-1.56
	c0.59-0.23,0.95-1.03,1.42-1.58c-0.55-0.36-1.22-0.62-1.62-1.11c-0.53-0.64-1.09-1.4-1.23-2.19c-0.17-0.97-0.23-2.21,0.24-2.97
	c0.44-0.72,1.66-1.38,2.49-1.33c0.97,0.06,1.9,0.91,2.83,1.44c0.58,0.33,1.09,0.8,1.69,1.05c1.2,0.48,3.04,0.5,3.53,1.34
	c0.71,1.23,0.5,3.02,0.6,4.57c0.02,0.35-0.33,0.71-0.48,1.08c-0.72,1.81-0.26,3.01,1.7,3.66c3,0.99,2.61,3.01,1.43,5.21
	c-0.45,0.84-0.84,1.72-1.25,2.58l0-0.01c-1.9,3.75-4.2,7.36-5.55,11.3c-0.89,2.6-1.77,4.03-0.56,7.13"/>
<path d="M132.55,97.17"/>
<path d="M131.65,94.67"/>
<path class="st0" d="M90.01,66.21c-1.78,0.56-2.69,0.79-3.55,1.14c-0.31,0.13-0.77,0.61-0.71,0.8c0.25,0.82,0.56,1.68,1.08,2.35
	c0.18,0.23,1.23,0.17,1.5-0.12c0.64-0.71,1.11-1.6,1.54-2.46C90.04,67.56,89.95,67.08,90.01,66.21z"/>
<path class="st1" d="M84.34,140.3c-0.22,0.05-0.44,0.1-0.66,0.14c0.14,0.16,0.3,0.3,0.42,0.47c0.54,0.78,1.07,1.56,1.58,2.35
	c0.22,0.34,0.39,0.7,0.59,1.05c0.26-0.24,0.49-0.53,0.78-0.71c0.13-0.08,0.38,0.08,0.59,0.11c0.44,0.08,0.96,0.33,1.3,0.18
	c0.63-0.28,1.16-0.8,1.73-1.22c-0.12,0.63-0.24,1.26-0.35,1.89c-0.01,0.04,0.05,0.12,0.05,0.13c-0.73,0.4-1.48,1.12-2.2,1.1
	c-0.92-0.03-1.79-0.88-2.73-0.99c-0.95-0.11-1.96,0.18-2.92,0.41c-0.59,0.14-1.11,0.61-1.7,0.76c-0.87,0.22-1.78,0.25-2.65,0.43
	c-0.22,0.04-0.39,0.34-0.58,0.53c0.23,0.05,0.49,0.06,0.69,0.17c0.26,0.13,0.69,0.45,0.67,0.48c-0.31,0.54-0.77,1.53-1.01,1.48
	c-2.15-0.41-4.27-1.01-6.4-1.56c-0.29-0.08-0.58-0.19-0.88-0.23c-0.77-0.1-1.55-0.17-2.33-0.26c0.76-0.26,1.51-0.67,2.29-0.73
	c1.13-0.09,2.27,0.08,3.41,0.11c0.58,0.01,1.19,0.05,1.73-0.11c0.19-0.06,0.37-0.95,0.27-1.02c-0.44-0.29-0.98-0.41-1.49-0.58
	c-0.09-0.03-0.2-0.02-0.3-0.03c-1.07-0.15-2.13-0.29-3.2-0.44c1.23-0.44,2.46-0.9,3.7-1.3c0.38-0.12,0.8-0.09,1.21-0.13
	c-0.36-0.3-0.69-0.64-1.09-0.88c-0.61-0.37-1.27-0.68-1.91-1.01c-0.34-0.17-0.68-0.32-1.02-0.48c0.42,0.02,0.85,0.05,1.27,0.07
	c2.23,0.12,4.48,0.49,6.66,0.23c1.01-0.12,1.88-1.44,2.82-2.22c-0.6-0.44-1.21-0.87-1.79-1.34c-0.17-0.14-0.39-0.41-0.35-0.55
	c0.05-0.18,0.37-0.45,0.52-0.42c0.61,0.12,1.22,0.31,1.81,0.52c0.3,0.11,0.57,0.45,0.85,0.45c0.49,0,0.98-0.18,1.46-0.28
	c-0.29,0.77-0.57,1.55-0.86,2.31c-0.03,0.07-0.15,0.11-0.22,0.16c0.12,0.15,0.21,0.33,0.35,0.45c0.23,0.2,0.48,0.36,0.73,0.53
	c-0.27,0.06-0.54,0.12-0.81,0.18C84.36,140.42,84.35,140.36,84.34,140.3z"/>
<path class="st1" d="M103.29,170.45c2.49,0.28,4.98,0.65,7.48,0.78c0.62,0.03,1.29-0.72,1.94-1.11c-0.69-0.15-1.39-0.43-2.08-0.42
	c-3.8,0.03-7.6,0.15-11.4,0.19c-0.31,0-0.9-0.44-0.87-0.56c0.13-0.58,0.34-1.52,0.69-1.6c2.35-0.53,4.74-0.85,7.12-1.27
	c1.13-0.2,2.28-0.71,3.37-0.6c0.81,0.08,1.54,0.93,2.32,1.42c0.86,0.54,1.72,1.07,2.6,1.57c0.39,0.22,0.81,0.38,1.22,0.57
	c-0.35,0.22-0.95,0.39-1,0.66c-0.72,3.89-3.59,1.11-5.31,1.53c-2.13,0.52-4.55-0.16-6.85-0.35c-0.21-0.02-0.41-0.22-0.62-0.33
	c0.45-0.03,0.89-0.06,1.34-0.08C103.25,170.71,103.27,170.58,103.29,170.45z"/>
<path class="st1" d="M154.03,160.32c-0.57-0.21-1.74-0.67-2.93-1.05c-0.23-0.07-0.54,0.21-0.82,0.23c-1.03,0.06-2.07,0.04-3.1,0.12
	c-0.61,0.04-1.22,0.2-1.83,0.32c-0.27,0.05-0.54,0.19-0.8,0.19c-0.14,0-0.28-0.23-0.42-0.36c0.16-0.17,0.32-0.48,0.49-0.49
	c4.47-0.19,5.19-4.51,7.64-6.91c0.39-0.39,0.9-0.66,1.35-0.99c0.68,1.19,1.37,2.37,1.98,3.59c0.01,0.02-0.77,0.54-1.22,0.69
	c-1.64,0.54-3.31,0.99-4.95,1.54c-0.25,0.08-0.38,0.51-0.56,0.78c0.28-0.03,0.62,0.02,0.85-0.11c2.98-1.68,5.16,0.92,7.74,1.42
	c0.13,0.03,0.22,0.27,0.33,0.42c-0.16,0.1-0.31,0.28-0.48,0.3C156.45,160.1,155.6,160.17,154.03,160.32z"/>
<path class="st1" d="M62.82,142.6c0,0-0.34,0.04-0.47-0.1c-0.61-0.65-0.59-0.67-1.64,0.12c-0.12,0.09-0.24,0.23-0.37,0.24
	c-2.33,0.29-4.67,0.57-7,0.82c-0.11,0.01-0.33-0.17-0.33-0.27c-0.04-0.76-0.22-2.13-0.02-2.19c2.66-0.82,5.36-1.47,8.07-2.12
	c0.34-0.08,0.75,0.09,1.12,0.14c-0.31,0.13-0.62,0.26-0.92,0.4c-0.21,0.1-0.4,0.22-0.6,0.33c0.21,0.01,0.43,0,0.64,0.03
	c1.15,0.19,2.31,0.38,3.45,0.61c0.07,0.01,0.15,0.38,0.13,0.39c-0.38,0.2-0.77,0.37-1.16,0.54c0.52-0.05,1.05-0.13,1.57-0.12
	c0.26,0.01,0.51,0.2,0.77,0.31c-0.22,0.16-0.41,0.42-0.65,0.47C64.63,142.36,63.85,142.45,62.82,142.6z"/>
<path class="st1" d="M133.21,152.26c4.52,0.23,9.03,0.45,13.54,0.69c0.21,0.01,0.41,0.14,0.61,0.22c-0.18,0.09-0.35,0.24-0.53,0.26
	c-1.38,0.18-2.76,0.31-4.13,0.5c-0.37,0.05-0.73,0.26-1.09,0.39c0.29,0.12,0.59,0.22,0.87,0.35c0.3,0.15,0.59,0.32,0.89,0.48
	c-0.3,0.1-0.63,0.34-0.9,0.29c-2.16-0.4-4.31-0.89-6.48-1.29c-1.26-0.23-2.55-0.27-3.81-0.51c-0.62-0.12-1.2-0.49-1.8-0.74
	c0.58-0.06,1.15-0.14,1.73-0.19c0.35-0.03,0.7-0.01,1.06-0.01C133.19,152.56,133.2,152.41,133.21,152.26z"/>
<path class="st1" d="M56.69,169.41c0.51-0.5,1.12-0.94,1.52-1.52c0.55-0.8,0.52-1.8,1.64-0.15c0.55,0.81,2.91,0.43,4.45,0.52
	c1.03,0.06,2.08-0.08,3.11,0.01c0.6,0.05,1.18,0.39,1.78,0.6c-0.55,0.63-1,1.57-1.69,1.82c-0.76,0.28-1.75-0.06-2.63-0.14
	c-0.03,0-0.04-0.16-0.06-0.24c0.3-0.02,0.61-0.01,0.9-0.07c0.39-0.08,0.78-0.22,1.16-0.33c-0.41-0.1-0.83-0.31-1.23-0.29
	c-2.79,0.17-5.58,0.4-8.36,0.59c-0.18,0.01-0.37-0.1-0.56-0.16c0.18-0.05,0.35-0.12,0.53-0.15c0.39-0.06,0.78-0.1,1.17-0.15
	c-0.41-0.06-0.81-0.15-1.22-0.18c-0.25-0.02-0.51,0.11-0.75,0.07c-0.75-0.14-1.49-0.34-2.23-0.52c0.67-0.08,1.35-0.15,2.02-0.23
	C56.39,169.06,56.54,169.24,56.69,169.41z"/>
<path class="st1" d="M144.06,79.37c0.09-0.64,0.18-1.29,0.27-1.93c0.44,0.61,1.06,1.15,1.29,1.83c0.42,1.22,0.62,2.51,0.86,3.78
	c0.02,0.13-0.27,0.32-0.41,0.48c-0.2,0.23-0.6,0.54-0.55,0.67c0.2,0.48,0.55,0.91,0.84,1.35c-0.79-0.42-1.66-0.73-2.32-1.29
	c-0.36-0.3-0.58-1.05-0.51-1.54c0.16-1.11,0.55-2.19,0.84-3.29C144.27,79.41,144.17,79.39,144.06,79.37z"/>
<path class="st1" d="M140.74,149.29c-2.53,0-5.06,0.01-7.59-0.02c-0.3,0-0.59-0.21-0.89-0.33c0.26-0.09,0.53-0.25,0.79-0.24
	c2.92,0.01,5.85,0.01,8.77,0.08c0.45,0.01,0.89,0.34,1.33,0.52c-0.5,0.09-1,0.19-1.51,0.25c-0.3,0.04-0.6,0.01-0.9,0.01
	C140.74,149.47,140.74,149.38,140.74,149.29z"/>
<path class="st1" d="M175.57,130.42c-2.05-0.3-4.39-0.62-6.73-1c-0.25-0.04-0.45-0.41-0.67-0.63c0.3-0.12,0.61-0.37,0.89-0.34
	c2.38,0.3,4.76,0.63,7.13,1c0.29,0.05,0.54,0.37,0.81,0.57C176.64,130.11,176.28,130.22,175.57,130.42z"/>
<path class="st1" d="M75.06,138.4c0.28-1.18,0.29-1.7,0.42-1.73c1.24-0.3,2.5-0.52,3.76-0.75c0.05-0.01,0.18,0.17,0.17,0.18
	c-0.95,1.12-1.89,2.26-2.93,3.29C76.41,139.46,75.54,138.73,75.06,138.4z"/>
<path class="st1" d="M100.6,144.28c-1.11-0.51-2.21-1.01-3.29-1.52c-0.01-0.01,0.02-0.2,0.05-0.2c0.67-0.13,1.34-0.35,2.01-0.35
	c0.52,0,1.05,0.25,1.56,0.41c0.66,0.21,1.3,0.44,1.96,0.67C102.19,143.59,101.49,143.89,100.6,144.28z"/>
<path class="st1" d="M42.8,148.58c-0.72,0.44-1.42,0.92-2.17,1.3c-0.24,0.12-0.79,0.04-0.9-0.13c-0.15-0.23-0.13-0.85,0.04-0.95
	c0.64-0.41,1.35-0.87,2.07-0.96c1.26-0.15,2.55-0.04,3.83,0.01c0.05,0,0.18,0.52,0.09,0.7c-0.11,0.23-0.4,0.48-0.64,0.51
	c-0.69,0.07-1.4,0.02-2.1,0.02C42.96,148.91,42.88,148.74,42.8,148.58z"/>
<path class="st1" d="M83.81,136.2c-1.3-0.56-2.5-1.07-3.7-1.58c1.19-0.23,2.38-0.61,3.58-0.62c0.56,0,1.13,0.71,1.7,1.1
	C84.9,135.44,84.42,135.78,83.81,136.2z"/>
<path class="st1" d="M47.49,142.15c-0.17-0.13-0.46-0.35-0.76-0.57c0.29-0.19,0.63-0.34,0.87-0.58c0.39-0.39,0.66-1.1,1.1-1.21
	c0.87-0.23,1.82-0.16,2.73-0.18c0.31,0,0.62,0.12,0.93,0.18c-0.28,0.09-0.57,0.14-0.83,0.27C50.19,140.74,48.87,141.44,47.49,142.15
	z"/>
<path class="st1" d="M116.44,170.84c2.14,0.32,3.84,0.58,5.54,0.84c0.03,0,0.05,0.12,0.07,0.18c-1.06,0.24-2.12,0.7-3.18,0.67
	c-0.86-0.02-1.72-0.58-2.53-0.99C116.24,171.5,116.44,170.86,116.44,170.84z"/>
<path class="st1" d="M138.88,135.13c-1.19,0.16-2.38,0.35-3.57,0.46c-0.29,0.03-0.6-0.17-0.91-0.27c0.26-0.11,0.51-0.3,0.77-0.33
	c1.64-0.18,3.29-0.35,4.93-0.45c0.45-0.03,0.92,0.17,1.39,0.26c-0.47,0.11-0.94,0.26-1.41,0.33c-0.39,0.06-0.79,0.05-1.19,0.08
	C138.89,135.19,138.88,135.16,138.88,135.13z"/>
<path class="st1" d="M104.92,141.16c0.92,0.3,1.81,0.59,2.7,0.88c-0.29,0.21-0.59,0.62-0.85,0.59c-1.28-0.15-2.54-0.42-3.8-0.65
	C103.58,141.72,104.2,141.46,104.92,141.16z"/>
<path class="st1" d="M74.25,170.87c0.38,0.17,0.12,0.05-0.14-0.06c0.24-0.12,0.47-0.28,0.73-0.35c1.37-0.34,2.74-0.83,4.13-0.92
	c1.28-0.09,2.58,0.27,3.87,0.42c-1.3,0.01-2.6-0.08-3.89,0.05C77.58,170.16,76.23,170.5,74.25,170.87z"/>
<path class="st1" d="M42.08,129.79c1.14,0.07,2.66,0.14,4.19,0.25c0.28,0.02,0.54,0.19,0.81,0.3c-0.23,0.15-0.48,0.44-0.7,0.42
	c-2.1-0.15-4.19-0.36-6.29-0.56c-0.07-0.01-0.13-0.14-0.19-0.21C40.49,129.93,41.08,129.88,42.08,129.79z"/>
<path class="st1" d="M61.57,145.91c1.1-0.14,2.19-0.29,3.29-0.4c0.29-0.03,0.59,0.05,0.87,0.12c0.04,0.01,0.07,0.34,0.04,0.35
	c-0.63,0.25-1.25,0.58-1.91,0.7c-0.89,0.15-1.8,0.16-2.71,0.18c-0.2,0.01-0.47-0.11-0.61-0.27c-0.15-0.16-0.19-0.43-0.27-0.65
	c0.41-0.13,0.83-0.26,1.24-0.39C61.53,145.68,61.55,145.79,61.57,145.91z"/>
<path class="st1" d="M87.68,165.76c-0.99-0.16-1.97-0.31-2.96-0.47c1.42-0.39,2.83-0.86,4.28-1.1c0.23-0.04,0.63,0.9,0.95,1.39
	c-0.76,0-1.51,0-2.27,0C87.68,165.64,87.68,165.7,87.68,165.76z"/>
<path class="st1" d="M112.21,162.4c1.67,0.54,3.24,1.03,4.8,1.56c0.15,0.05,0.25,0.27,0.37,0.41c-0.17-0.06-0.34-0.17-0.51-0.18
	c-1.54-0.04-3.08,0.02-4.61-0.12c-0.54-0.05-1.04-0.58-1.57-0.89C111.18,162.93,111.66,162.69,112.21,162.4z"/>
<path class="st1" d="M170.34,162.71c1.83,0.05,3.66,0.09,5.48,0.15c0.22,0.01,0.44,0.07,0.65,0.11c-0.21,0.18-0.4,0.47-0.63,0.51
	c-1.71,0.28-3.43,0.51-5.14,0.75c0.03-0.23,0.13-0.49,0.07-0.7c-0.07-0.3-0.26-0.56-0.4-0.84
	C170.37,162.7,170.34,162.71,170.34,162.71z"/>
<g>
	<g>
		<path class="st1" d="M96.62,73.57c1.98,1.35,3.92,2.58,5.47,4.42c1.4,1.66,2.55,3.74,3.62,5.71c0.56-0.73,1.13-1.47,1.69-2.2
			c-0.92-0.3-2-0.85-2.74-1.47c-0.96-0.8-1.63-1.85-2.54-2.69c-0.94-0.87-1.94-1.62-2.8-2.59c-0.21-0.24-0.42-0.49-0.63-0.74
			c-0.12-0.15-0.25-0.3-0.37-0.45c-0.15-0.19-0.07-0.19-0.06,0.04c0.03,0.07,0.04,0.14,0.02,0.21c-0.01,0.1,0,0.07,0.04-0.09
			c-0.16,0.23,0.1-0.23,0.15-0.36c0.13-0.34,0.2-0.69,0.2-1.06c-0.01-0.81-0.68-1.5-1.5-1.5c-0.81,0-1.51,0.69-1.5,1.5
			c0.04-0.13,0.04-0.14,0.01-0.03c-0.02,0.07-0.04,0.15-0.07,0.22c0.07-0.19-0.15,0.36-0.18,0.43c-0.13,0.38-0.17,0.78-0.1,1.18
			c0.15,0.88,0.81,1.53,1.36,2.19c0.48,0.57,0.97,1.14,1.51,1.65c0.52,0.5,1.11,0.93,1.65,1.41c1.04,0.92,1.78,2.1,2.88,2.98
			c1.16,0.93,2.44,1.62,3.86,2.08c1.3,0.42,2.29-1.1,1.69-2.2c-1.2-2.21-2.46-4.39-4.09-6.32c-1.71-2.02-3.92-3.41-6.08-4.89
			c-0.67-0.46-1.66-0.13-2.05,0.54C95.65,72.26,95.95,73.12,96.62,73.57L96.62,73.57z"/>
	</g>
</g>
<g>
	<g>
		<path class="st1" d="M96.38,74.38c1.75,1.48,3.45,3.03,5.07,4.65c0.36,0.36,0.73,0.73,1.07,1.11c0.21,0.24,0.21,0.23,0.34,0.43
			c0.12,0.18,0.22,0.36,0.32,0.55c0.46,0.89,0.93,1.83,1.89,2.27c0.59,0.27,1.34,0.29,1.82-0.23c0.46-0.5,0.56-1.21,0.23-1.82
			c-2.2-4.03-5.47-7.44-9.38-9.83c-0.67-0.41-1.68-0.17-2.05,0.54c-0.39,0.73-0.18,1.62,0.54,2.05c0.45,0.28,0.89,0.56,1.33,0.87
			c0.23,0.16,0.45,0.32,0.67,0.49c0.2,0.14,0,0,0.11,0.09c0.1,0.08,0.2,0.16,0.29,0.24c0.82,0.67,1.6,1.38,2.33,2.15
			c0.35,0.36,0.68,0.74,1.01,1.12c0.18,0.21,0.35,0.43,0.52,0.64c0.09,0.11-0.06-0.08,0.09,0.11c0.07,0.1,0.15,0.2,0.22,0.3
			c0.64,0.87,1.21,1.79,1.73,2.74c0.68-0.68,1.37-1.37,2.05-2.05c-0.04-0.02-0.34-0.17-0.16-0.07c0.16,0.1-0.1-0.11-0.11-0.12
			c0.09,0.08,0.1,0.15,0.01,0.01c-0.06-0.09-0.11-0.18-0.16-0.27c-0.2-0.36-0.36-0.75-0.58-1.1c-0.56-0.93-1.36-1.71-2.13-2.47
			c-1.58-1.58-3.23-3.09-4.94-4.53c-0.6-0.51-1.54-0.63-2.12,0C95.87,72.81,95.74,73.83,96.38,74.38L96.38,74.38z"/>
	</g>
</g>
<g>
	<g>
		<path class="st1" d="M96.98,75.37c-0.18-0.02-0.21-0.02-0.02,0.03c0.16,0.04-0.27-0.17-0.01,0.01c0.06,0.04,0.13,0.08,0.19,0.12
			c0.3,0.19-0.13-0.13,0.01,0.01c0.28,0.27,0.58,0.53,0.87,0.79c0.61,0.57,1.22,1.14,1.81,1.73c0.58,0.57,1.14,1.15,1.68,1.76
			c0.28,0.31,0.55,0.63,0.81,0.95c0.07,0.08,0.14,0.17,0.21,0.26c0.04,0.05,0.22,0.29,0.05,0.06c0.13,0.18,0.26,0.35,0.39,0.53
			c0.46,0.64,1.33,1.01,2.05,0.54c0.63-0.41,1.03-1.37,0.54-2.05c-1.12-1.57-2.42-3-3.79-4.34c-0.64-0.63-1.3-1.24-1.96-1.86
			c-0.37-0.34-0.74-0.67-1.15-0.96c-0.52-0.35-1.07-0.49-1.68-0.57c-0.78-0.1-1.53,0.76-1.5,1.5
			C95.52,74.77,96.14,75.26,96.98,75.37L96.98,75.37z"/>
	</g>
</g>
<g>
	<g>
		<path class="st1" d="M96.45,75.73c1.09,1.01,2.17,2.03,3.26,3.04c1.02,0.95,2.11,1.86,2.97,2.96c0.22,0.28,0.72,0.44,1.06,0.44
			c0.37,0,0.81-0.16,1.06-0.44c0.26-0.29,0.46-0.66,0.44-1.06c-0.02-0.42-0.18-0.73-0.44-1.06c-0.86-1.1-1.95-2.01-2.97-2.96
			c-1.09-1.01-2.17-2.03-3.26-3.04c-0.57-0.54-1.56-0.61-2.12,0C95.91,74.19,95.83,75.16,96.45,75.73L96.45,75.73z"/>
	</g>
</g>
<g>
	<g>
		<path class="st1" d="M103.53,82.5c0.1,0.05,0.2,0.1,0.29,0.16c0.17,0.11,0.36,0.17,0.56,0.18c0.2,0.04,0.4,0.04,0.6-0.03
			c0.2-0.05,0.37-0.14,0.51-0.27c0.16-0.11,0.29-0.25,0.39-0.42c0.05-0.12,0.1-0.24,0.15-0.36c0.07-0.27,0.07-0.53,0-0.8
			c-0.05-0.12-0.1-0.24-0.15-0.36c-0.13-0.23-0.31-0.4-0.54-0.54c-0.09-0.06-0.19-0.11-0.29-0.16c-0.17-0.11-0.36-0.17-0.56-0.18
			c-0.2-0.04-0.4-0.04-0.6,0.03c-0.2,0.05-0.37,0.14-0.51,0.27c-0.16,0.11-0.29,0.25-0.39,0.42c-0.05,0.12-0.1,0.24-0.15,0.36
			c-0.07,0.27-0.07,0.53,0,0.8c0.05,0.12,0.1,0.24,0.15,0.36C103.13,82.19,103.31,82.37,103.53,82.5L103.53,82.5z"/>
	</g>
</g>
<g>
	<g>
		<path class="st1" d="M105.4,83.5c0.02,0.01,0.04,0.02,0.05,0.03c-0.1-0.08-0.2-0.16-0.3-0.23c0.01,0.01,0.03,0.02,0.04,0.04
			c0.14,0.15,0.3,0.25,0.48,0.31c0.18,0.09,0.37,0.14,0.58,0.13c0.21,0.01,0.4-0.04,0.58-0.13c0.19-0.06,0.35-0.16,0.48-0.31
			c0.08-0.1,0.16-0.2,0.23-0.3c0.14-0.23,0.2-0.49,0.2-0.76c-0.02-0.13-0.04-0.27-0.05-0.4c-0.07-0.25-0.2-0.47-0.39-0.66
			c-0.01-0.01-0.01-0.01-0.02-0.02c0,0-0.01-0.01-0.01-0.01c0,0,0,0-0.01,0c-0.05-0.04-0.1-0.08-0.15-0.12
			c-0.05-0.04-0.1-0.08-0.15-0.12c-0.02-0.01-0.03-0.02-0.05-0.03c-0.17-0.11-0.36-0.17-0.56-0.18c-0.2-0.04-0.4-0.04-0.6,0.03
			c-0.2,0.05-0.37,0.14-0.51,0.27c-0.16,0.11-0.29,0.25-0.39,0.42c-0.05,0.12-0.1,0.24-0.15,0.36c-0.07,0.27-0.07,0.53,0,0.8
			c0.05,0.12,0.1,0.24,0.15,0.36C104.99,83.19,105.17,83.37,105.4,83.5L105.4,83.5z"/>
	</g>
</g>
<g>
	<g>
		<path class="st1" d="M100.03,76.39c0.04,0.01,0.08,0.03,0.13,0.04c-0.12-0.05-0.24-0.1-0.36-0.15c0.1,0.05,0.19,0.1,0.28,0.17
			c-0.1-0.08-0.2-0.16-0.3-0.23c0.37,0.3,0.69,0.67,1.02,1.01c0.34,0.35,0.7,0.7,1,1.09c-0.08-0.1-0.16-0.2-0.23-0.3
			c0.25,0.34,0.48,0.69,0.76,1.01c0.22,0.24,0.44,0.48,0.64,0.74c-0.08-0.1-0.16-0.2-0.23-0.3c0.09,0.12,0.18,0.24,0.26,0.36
			c0.22,0.33,0.51,0.58,0.9,0.69c0.36,0.1,0.84,0.05,1.16-0.15c0.64-0.42,1.01-1.36,0.54-2.05c-0.23-0.33-0.47-0.65-0.73-0.96
			c-0.2-0.23-0.41-0.44-0.6-0.68c0.08,0.1,0.16,0.2,0.23,0.3c-0.27-0.36-0.51-0.73-0.81-1.06c-0.25-0.27-0.51-0.54-0.76-0.8
			c-0.62-0.64-1.21-1.34-2.09-1.6c-0.75-0.23-1.67,0.27-1.85,1.05C98.8,75.35,99.23,76.14,100.03,76.39L100.03,76.39z"/>
	</g>
</g>
<g>
</g>
<g>
</g>
<g>
</g>
<g>
</g>
<g>
</g>
<g>
</g>
<g>
</g>
<g>
</g>
<g>
</g>
<g>
</g>
<g>
</g>
<g>
</g>
<g>
</g>
<g>
</g>
<g>
</g>
</svg>
